<svg xmlns="http://www.w3.org/2000/svg" version="1.1" xmlns:xlink="http://www.w3.org/1999/xlink" xmlns:svgjs="http://svgjs.dev/svgjs" width="128" height="128" viewBox="0 0 128 128"><g transform="matrix(0.8046875,0,0,0.8046875,12.411840748212605,12.814873242367192)"><svg viewBox="0 0 98 98" data-background-color="#ffffff" preserveAspectRatio="xMidYMid meet" height="127" width="128" xmlns="http://www.w3.org/2000/svg" xmlns:xlink="http://www.w3.org/1999/xlink"><g id="tight-bounds" transform="matrix(1,0,0,1,0.0838796764579115,0.0838796764579115)"><svg viewBox="0 0 97.83224064708416 97.83224064708416" height="97.83224064708416" width="97.83224064708416"><rect width="97.83224064708416" height="97.83224064708416" fill="url(#4e5b5e1d-10eb-4bba-8e7d-437161db4ed4)" mask="url(#7888b84f-5fb7-40ef-91a9-f327c7ab6d5e)" data-fill-palette-color="tertiary"></rect><g><svg></svg></g><g><svg viewBox="0 0 97.83224064708416 97.83224064708416" height="97.83224064708416" width="97.83224064708416"><g><path d="M0 48.916c0-27.016 21.9-48.916 48.916-48.916 27.016 0 48.916 21.9 48.916 48.916 0 27.016-21.9 48.916-48.916 48.916-27.016 0-48.916-21.9-48.916-48.916zM48.916 93.244c24.481 0 44.328-19.846 44.328-44.328 0-24.481-19.846-44.328-44.328-44.327-24.481 0-44.328 19.846-44.327 44.327 0 24.481 19.846 44.328 44.327 44.328z" data-fill-palette-color="tertiary" fill="url(#4e5b5e1d-10eb-4bba-8e7d-437161db4ed4)" stroke="transparent"></path><ellipse rx="46.9594755106004" ry="46.9594755106004" cx="48.91612032354208" cy="48.91612032354208" fill="url(#4e5b5e1d-10eb-4bba-8e7d-437161db4ed4)" stroke="transparent" stroke-width="0" fill-opacity="1" data-fill-palette-color="tertiary"></ellipse></g><g transform="matrix(1,0,0,1,23.475393915029343,23.475393915029343)"><svg viewBox="0 0 50.881452817025476 50.881452817025476" height="50.881452817025476" width="50.881452817025476"><g><svg viewBox="0 0 50.881452817025476 50.881452817025476" height="50.881452817025476" width="50.881452817025476"><g><svg viewBox="0 0 50.881452817025476 50.881452817025476" height="50.881452817025476" width="50.881452817025476"><g id="textblocktransform"><svg viewBox="0 0 50.881452817025476 50.881452817025476" height="50.881452817025476" width="50.881452817025476" id="textblock"><g><svg viewBox="0 0 50.881452817025476 50.881452817025476" height="50.881452817025476" width="50.881452817025476"><g><svg viewBox="0 0 50.881452817025476 50.881452817025476" height="50.881452817025476" width="50.881452817025476"><g><svg xmlns="http://www.w3.org/2000/svg" xmlns:xlink="http://www.w3.org/1999/xlink" version="1.1" x="0" y="0" viewBox="0 0 100 100" enable-background="new 0 0 100 100" xml:space="preserve" height="50.881452817025476" width="50.881452817025476" class="icon-icon-0" data-fill-palette-color="quaternary" id="icon-0"><path d="M50 100C22.43 100 0 77.57 0 49.999 0 22.43 22.43 0 50 0c27.569 0 50 22.43 50 50C100 77.57 77.57 100 50 100zM50 9.234c-22.478 0-40.766 18.287-40.766 40.765 0 22.478 18.288 40.766 40.766 40.766s40.765-18.288 40.765-40.766C90.765 27.521 72.479 9.234 50 9.234z" fill="#ffffff" data-fill-palette-color="quaternary"></path><g fill="#ffffff" data-fill-palette-color="quaternary"><path d="M52.479 16.976v3.996c2.639 0.273 4.903 0.815 6.79 1.628 1.887 0.815 3.534 2.048 4.94 3.7 1.11 1.258 1.967 2.553 2.571 3.885 0.604 1.333 0.907 2.553 0.907 3.663 0 1.233-0.45 2.301-1.351 3.2-0.901 0.901-1.992 1.351-3.275 1.351-2.418 0-3.984-1.308-4.699-3.922-0.814-3.083-2.775-5.13-5.883-6.142v15.392c3.058 0.84 5.495 1.604 7.308 2.295 1.814 0.69 3.435 1.69 4.866 2.997 1.529 1.357 2.707 2.979 3.534 4.866 0.826 1.887 1.239 3.953 1.239 6.198 0 2.813-0.66 5.446-1.98 7.9-1.32 2.455-3.263 4.459-5.828 6.013-2.566 1.554-5.612 2.479-9.139 2.775v4.048c0 1.455-0.142 2.516-0.426 3.182C51.77 84.667 51.147 85 50.186 85c-0.889 0-1.512-0.271-1.869-0.814-0.358-0.543-0.537-1.382-0.537-2.517v-4.825c-2.886-0.321-5.408-0.999-7.566-2.035-2.159-1.036-3.959-2.325-5.403-3.867-1.443-1.541-2.51-3.144-3.2-4.81-0.69-1.665-1.036-3.299-1.036-4.903 0-1.184 0.463-2.25 1.388-3.2 0.925-0.95 2.078-1.425 3.46-1.425 1.11 0 2.047 0.259 2.812 0.778 0.765 0.518 1.296 1.246 1.591 2.182 0.666 2.023 1.245 3.571 1.739 4.644 0.493 1.072 1.239 2.053 2.238 2.941 0.999 0.889 2.325 1.567 3.977 2.035V51.979c-3.306-0.912-6.068-1.93-8.288-3.052-2.221-1.122-4.021-2.719-5.403-4.792-1.382-2.072-2.072-4.737-2.072-7.993 0-4.242 1.351-7.721 4.052-10.434 2.701-2.713 6.604-4.292 11.711-4.737V17.05c0-2.072 0.778-3.108 2.332-3.108C51.69 13.942 52.479 14.954 52.479 16.976zM47.78 42.359V28.187c-2.072 0.617-3.687 1.431-4.847 2.442-1.16 1.012-1.739 2.541-1.739 4.588 0 1.949 0.543 3.423 1.628 4.422C43.907 40.639 45.56 41.545 47.78 42.359zM52.479 53.349v16.207c2.491-0.494 4.416-1.493 5.773-2.998 1.356-1.504 2.035-3.255 2.035-5.254 0-2.146-0.66-3.805-1.98-4.977C56.987 55.156 55.044 54.163 52.479 53.349z" fill="#ffffff" data-fill-palette-color="quaternary"></path></g></svg></g></svg></g></svg></g></svg></g></svg></g><g></g></svg></g></svg></g></svg></g><defs></defs><mask id="7888b84f-5fb7-40ef-91a9-f327c7ab6d5e"><g id="SvgjsG2149"><svg viewBox="0 0 97.83224064708416 97.83224064708416" height="97.83224064708416" width="97.83224064708416"><g><svg></svg></g><g><svg viewBox="0 0 97.83224064708416 97.83224064708416" height="97.83224064708416" width="97.83224064708416"><g><path d="M0 48.916c0-27.016 21.9-48.916 48.916-48.916 27.016 0 48.916 21.9 48.916 48.916 0 27.016-21.9 48.916-48.916 48.916-27.016 0-48.916-21.9-48.916-48.916zM48.916 93.244c24.481 0 44.328-19.846 44.328-44.328 0-24.481-19.846-44.328-44.328-44.327-24.481 0-44.328 19.846-44.327 44.327 0 24.481 19.846 44.328 44.327 44.328z" fill="white" stroke="transparent"></path><ellipse rx="46.9594755106004" ry="46.9594755106004" cx="48.91612032354208" cy="48.91612032354208" fill="white" stroke="transparent" stroke-width="0" fill-opacity="1"></ellipse></g><g transform="matrix(1,0,0,1,23.475393915029343,23.475393915029343)"><svg viewBox="0 0 50.881452817025476 50.881452817025476" height="50.881452817025476" width="50.881452817025476"><g><svg viewBox="0 0 50.881452817025476 50.881452817025476" height="50.881452817025476" width="50.881452817025476"><g><svg viewBox="0 0 50.881452817025476 50.881452817025476" height="50.881452817025476" width="50.881452817025476"><g id="SvgjsG2148"><svg viewBox="0 0 50.881452817025476 50.881452817025476" height="50.881452817025476" width="50.881452817025476" id="SvgjsSvg2147"><g><svg viewBox="0 0 50.881452817025476 50.881452817025476" height="50.881452817025476" width="50.881452817025476"><g><svg viewBox="0 0 50.881452817025476 50.881452817025476" height="50.881452817025476" width="50.881452817025476"><g><svg xmlns="http://www.w3.org/2000/svg" xmlns:xlink="http://www.w3.org/1999/xlink" version="1.1" x="0" y="0" viewBox="0 0 100 100" enable-background="new 0 0 100 100" xml:space="preserve" height="50.881452817025476" width="50.881452817025476" class="icon-icon-0" data-fill-palette-color="quaternary" id="SvgjsSvg2146"></svg></g></svg></g></svg></g></svg></g></svg></g><g></g></svg></g></svg></g></svg></g><defs><mask></mask></defs></svg></g></mask><linearGradient x1="0" x2="1" y1="0.578" y2="0.595" id="4e5b5e1d-10eb-4bba-8e7d-437161db4ed4"><stop stop-color="#6ee2f5" offset="0"></stop><stop stop-color="#6454f0" offset="1"></stop></linearGradient></svg><rect width="97.83224064708416" height="97.83224064708416" fill="none" stroke="none" visibility="hidden"></rect></g></svg></g></svg>