<svg xmlns="http://www.w3.org/2000/svg" version="1.1" xmlns:xlink="http://www.w3.org/1999/xlink" xmlns:svgjs="http://svgjs.dev/svgjs" width="2000" height="2000" viewBox="0 0 2000 2000"><g transform="matrix(1,0,0,1,-0.28443113772425477,-0.28443113772459583)"><svg viewBox="0 0 334 334" data-background-color="#ffffff" preserveAspectRatio="xMidYMid meet" height="2000" width="2000" xmlns="http://www.w3.org/2000/svg" xmlns:xlink="http://www.w3.org/1999/xlink"><g id="tight-bounds" transform="matrix(1,0,0,1,0.04749999999998522,0.04750000000001364)"><svg viewBox="0 0 333.90454557049503 333.90454557049503" height="333.90454557049503" width="333.90454557049503"><rect width="333.905" height="333.905" fill="url(#e94c9a4c-97c4-4673-8b56-d117d002a290)" mask="url(#8343c66b-e82a-41fa-ade8-350d8d647b35)" data-fill-palette-color="tertiary"></rect><g><svg></svg></g><g><svg viewBox="0 0 333.90454557049503 333.90454557049503" height="333.90454557049503" width="333.90454557049503"><g><path d="M0 166.952c0-92.205 74.747-166.952 166.952-166.952 92.205 0 166.952 74.747 166.953 166.952 0 92.205-74.747 166.952-166.953 166.953-92.205 0-166.952-74.747-166.952-166.953zM166.952 325.774c87.715 0 158.822-71.107 158.822-158.822 0-87.715-71.107-158.822-158.822-158.822-87.715 0-158.822 71.107-158.822 158.822 0 87.715 71.107 158.822 158.822 158.822z" data-fill-palette-color="tertiary" fill="url(#e94c9a4c-97c4-4673-8b56-d117d002a290)" stroke="transparent"></path><ellipse rx="160.27418187383762" ry="160.27418187383762" cx="166.95227278524752" cy="166.95227278524752" fill="url(#e94c9a4c-97c4-4673-8b56-d117d002a290)" stroke="transparent" stroke-width="0" fill-opacity="1" data-fill-palette-color="tertiary"></ellipse></g><g transform="matrix(1,0,0,1,102.12953174073913,71.17305217166896)"><svg viewBox="0 0 129.64548208901678 191.55844122715712" height="191.55844122715712" width="129.64548208901678"><g><svg viewBox="0 0 129.64548208901678 191.55844122715712" height="191.55844122715712" width="129.64548208901678"><g><svg viewBox="0 0 213.1584412271571 314.95350302950516" height="191.55844122715712" width="129.64548208901678"><g transform="matrix(1,0,0,1,0,166.72508798777466)"><svg viewBox="0 0 213.1584412271571 148.2284150417305" height="148.2284150417305" width="213.1584412271571"><g id="textblocktransform"><svg viewBox="0 0 213.1584412271571 148.2284150417305" height="148.2284150417305" width="213.1584412271571" id="textblock"><g><svg viewBox="0 0 213.1584412271571 148.2284150417305" height="148.2284150417305" width="213.1584412271571"><g transform="matrix(1,0,0,1,0,0)"><svg width="213.1584412271571" viewBox="3.1 -34.25 49.9 34.7" height="148.2284150417305" data-palette-color="#ffffff"><path d="M13.55 0.45L13.55 0.45Q10.45 0.45 8-0.4 5.55-1.25 3.1-2.7L3.1-2.7Q3.4-4.6 3.5-6.55 3.6-8.5 3.6-10L3.6-10Q4.25-10.2 5.15-10.28 6.05-10.35 6.8-10.35L6.8-10.35Q7-7.7 7.73-5.9 8.45-4.1 10.03-3.15 11.6-2.2 14.15-2.2L14.15-2.2Q17.45-2.2 18.88-3.65 20.3-5.1 20.3-7.15L20.3-7.15Q20.3-9.2 19.1-10.55 17.9-11.9 16-12.88 14.1-13.85 12-14.8 9.9-15.75 8-17.03 6.1-18.3 4.9-20.2 3.7-22.1 3.7-25.05L3.7-25.05Q3.7-28 5-30.05 6.3-32.1 8.63-33.18 10.95-34.25 14.1-34.25L14.1-34.25Q15.85-34.25 17.5-33.95 19.15-33.65 20.53-33.15 21.9-32.65 22.75-32.05L22.75-32.05Q22.75-30.5 22.8-28.55 22.85-26.6 23.05-25.3L23.05-25.3Q22.45-25.05 21.53-24.9 20.6-24.75 19.8-24.75L19.8-24.75Q19.3-27.6 18.5-29.1 17.7-30.6 16.57-31.18 15.45-31.75 13.95-31.75L13.95-31.75Q11.45-31.75 10.03-30.55 8.6-29.35 8.6-27.15L8.6-27.15Q8.6-25.05 9.8-23.65 11-22.25 12.9-21.25 14.8-20.25 16.93-19.25 19.05-18.25 20.98-17 22.9-15.75 24.1-13.9 25.3-12.05 25.3-9.25L25.3-9.25Q25.3-6.65 24.05-4.42 22.8-2.2 20.23-0.88 17.65 0.45 13.55 0.45ZM41.25 0.45L41.25 0.45Q38.15 0.45 35.7-0.4 33.25-1.25 30.8-2.7L30.8-2.7Q31.1-4.6 31.2-6.55 31.3-8.5 31.3-10L31.3-10Q31.95-10.2 32.85-10.28 33.75-10.35 34.5-10.35L34.5-10.35Q34.7-7.7 35.42-5.9 36.15-4.1 37.72-3.15 39.3-2.2 41.85-2.2L41.85-2.2Q45.15-2.2 46.57-3.65 48-5.1 48-7.15L48-7.15Q48-9.2 46.8-10.55 45.6-11.9 43.7-12.88 41.8-13.85 39.7-14.8 37.6-15.75 35.7-17.03 33.8-18.3 32.6-20.2 31.4-22.1 31.4-25.05L31.4-25.05Q31.4-28 32.7-30.05 34-32.1 36.32-33.18 38.65-34.25 41.8-34.25L41.8-34.25Q43.55-34.25 45.2-33.95 46.85-33.65 48.22-33.15 49.6-32.65 50.45-32.05L50.45-32.05Q50.45-30.5 50.5-28.55 50.55-26.6 50.75-25.3L50.75-25.3Q50.15-25.05 49.22-24.9 48.3-24.75 47.5-24.75L47.5-24.75Q47-27.6 46.2-29.1 45.4-30.6 44.27-31.18 43.15-31.75 41.65-31.75L41.65-31.75Q39.15-31.75 37.72-30.55 36.3-29.35 36.3-27.15L36.3-27.15Q36.3-25.05 37.5-23.65 38.7-22.25 40.6-21.25 42.5-20.25 44.62-19.25 46.75-18.25 48.67-17 50.6-15.75 51.8-13.9 53-12.05 53-9.25L53-9.25Q53-6.65 51.75-4.42 50.5-2.2 47.92-0.88 45.35 0.45 41.25 0.45Z" opacity="1" transform="matrix(1,0,0,1,0,0)" fill="#ffffff" class="wordmark-text-0" data-fill-palette-color="quaternary" id="text-0"></path></svg></g></svg></g></svg></g></svg></g><g transform="matrix(1,0,0,1,40.713262274387006,0)"><svg viewBox="0 0 131.7319166783831 131.7319166783831" height="131.7319166783831" width="131.7319166783831"><g><svg xmlns="http://www.w3.org/2000/svg" xmlns:xlink="http://www.w3.org/1999/xlink" version="1.1" x="0" y="0" viewBox="0 0 100 100" enable-background="new 0 0 100 100" xml:space="preserve" height="131.7319166783831" width="131.7319166783831" class="icon-icon-0" data-fill-palette-color="quaternary" id="icon-0"><path d="M50 100C22.43 100 0 77.57 0 49.999 0 22.43 22.43 0 50 0c27.569 0 50 22.43 50 50C100 77.57 77.57 100 50 100zM50 9.234c-22.478 0-40.766 18.287-40.766 40.765 0 22.478 18.288 40.766 40.766 40.766s40.765-18.288 40.765-40.766C90.765 27.521 72.479 9.234 50 9.234z" fill="#ffffff" data-fill-palette-color="quaternary"></path><g fill="#ffffff" data-fill-palette-color="quaternary"><path d="M52.479 16.976v3.996c2.639 0.273 4.903 0.815 6.79 1.628 1.887 0.815 3.534 2.048 4.94 3.7 1.11 1.258 1.967 2.553 2.571 3.885 0.604 1.333 0.907 2.553 0.907 3.663 0 1.233-0.45 2.301-1.351 3.2-0.901 0.901-1.992 1.351-3.275 1.351-2.418 0-3.984-1.308-4.699-3.922-0.814-3.083-2.775-5.13-5.883-6.142v15.392c3.058 0.84 5.495 1.604 7.308 2.295 1.814 0.69 3.435 1.69 4.866 2.997 1.529 1.357 2.707 2.979 3.534 4.866 0.826 1.887 1.239 3.953 1.239 6.198 0 2.813-0.66 5.446-1.98 7.9-1.32 2.455-3.263 4.459-5.828 6.013-2.566 1.554-5.612 2.479-9.139 2.775v4.048c0 1.455-0.142 2.516-0.426 3.182C51.77 84.667 51.147 85 50.186 85c-0.889 0-1.512-0.271-1.869-0.814-0.358-0.543-0.537-1.382-0.537-2.517v-4.825c-2.886-0.321-5.408-0.999-7.566-2.035-2.159-1.036-3.959-2.325-5.403-3.867-1.443-1.541-2.51-3.144-3.2-4.81-0.69-1.665-1.036-3.299-1.036-4.903 0-1.184 0.463-2.25 1.388-3.2 0.925-0.95 2.078-1.425 3.46-1.425 1.11 0 2.047 0.259 2.812 0.778 0.765 0.518 1.296 1.246 1.591 2.182 0.666 2.023 1.245 3.571 1.739 4.644 0.493 1.072 1.239 2.053 2.238 2.941 0.999 0.889 2.325 1.567 3.977 2.035V51.979c-3.306-0.912-6.068-1.93-8.288-3.052-2.221-1.122-4.021-2.719-5.403-4.792-1.382-2.072-2.072-4.737-2.072-7.993 0-4.242 1.351-7.721 4.052-10.434 2.701-2.713 6.604-4.292 11.711-4.737V17.05c0-2.072 0.778-3.108 2.332-3.108C51.69 13.942 52.479 14.954 52.479 16.976zM47.78 42.359V28.187c-2.072 0.617-3.687 1.431-4.847 2.442-1.16 1.012-1.739 2.541-1.739 4.588 0 1.949 0.543 3.423 1.628 4.422C43.907 40.639 45.56 41.545 47.78 42.359zM52.479 53.349v16.207c2.491-0.494 4.416-1.493 5.773-2.998 1.356-1.504 2.035-3.255 2.035-5.254 0-2.146-0.66-3.805-1.98-4.977C56.987 55.156 55.044 54.163 52.479 53.349z" fill="#ffffff" data-fill-palette-color="quaternary"></path></g></svg></g></svg></g><g></g></svg></g></svg></g></svg></g></svg></g><defs></defs><mask id="8343c66b-e82a-41fa-ade8-350d8d647b35"><g id="SvgjsG2076"><svg viewBox="0 0 333.90454557049503 333.90454557049503" height="333.90454557049503" width="333.90454557049503"><g><svg></svg></g><g><svg viewBox="0 0 333.90454557049503 333.90454557049503" height="333.90454557049503" width="333.90454557049503"><g><path d="M0 166.952c0-92.205 74.747-166.952 166.952-166.952 92.205 0 166.952 74.747 166.953 166.952 0 92.205-74.747 166.952-166.953 166.953-92.205 0-166.952-74.747-166.952-166.953zM166.952 325.774c87.715 0 158.822-71.107 158.822-158.822 0-87.715-71.107-158.822-158.822-158.822-87.715 0-158.822 71.107-158.822 158.822 0 87.715 71.107 158.822 158.822 158.822z" fill="white" stroke="transparent"></path><ellipse rx="160.27418187383762" ry="160.27418187383762" cx="166.95227278524752" cy="166.95227278524752" fill="white" stroke="transparent" stroke-width="0" fill-opacity="1"></ellipse></g><g transform="matrix(1,0,0,1,102.12953174073913,71.17305217166896)"><svg viewBox="0 0 129.64548208901678 191.55844122715712" height="191.55844122715712" width="129.64548208901678"><g><svg viewBox="0 0 129.64548208901678 191.55844122715712" height="191.55844122715712" width="129.64548208901678"><g><svg viewBox="0 0 213.1584412271571 314.95350302950516" height="191.55844122715712" width="129.64548208901678"><g transform="matrix(1,0,0,1,0,166.72508798777466)"><svg viewBox="0 0 213.1584412271571 148.2284150417305" height="148.2284150417305" width="213.1584412271571"><g id="SvgjsG2075"><svg viewBox="0 0 213.1584412271571 148.2284150417305" height="148.2284150417305" width="213.1584412271571" id="SvgjsSvg2074"><g><svg viewBox="0 0 213.1584412271571 148.2284150417305" height="148.2284150417305" width="213.1584412271571"><g transform="matrix(1,0,0,1,0,0)"><svg width="213.1584412271571" viewBox="3.1 -34.25 49.9 34.7" height="148.2284150417305" data-palette-color="#ffffff"></svg></g></svg></g></svg></g></svg></g><g transform="matrix(1,0,0,1,40.713262274387006,0)"><svg viewBox="0 0 131.7319166783831 131.7319166783831" height="131.7319166783831" width="131.7319166783831"><g><svg xmlns="http://www.w3.org/2000/svg" xmlns:xlink="http://www.w3.org/1999/xlink" version="1.1" x="0" y="0" viewBox="0 0 100 100" enable-background="new 0 0 100 100" xml:space="preserve" height="131.7319166783831" width="131.7319166783831" class="icon-icon-0" data-fill-palette-color="quaternary" id="SvgjsSvg2072"></svg></g></svg></g><g></g></svg></g></svg></g></svg></g></svg></g><defs><mask></mask></defs></svg></g></mask><linearGradient x1="0" x2="1" y1="0.578" y2="0.595" id="e94c9a4c-97c4-4673-8b56-d117d002a290"><stop stop-color="#6ee2f5" offset="0"></stop><stop stop-color="#6454f0" offset="1"></stop></linearGradient></svg><rect width="333.90454557049503" height="333.90454557049503" fill="none" stroke="none" visibility="hidden"></rect></g></svg></g></svg>